# AST/ASF file generated using VICON BodyLanguage
# -----------------------------------------------
:version 1.10
:name VICON
:units
  mass 1.0
  length 0.45
  angle deg
:documentation
   .ast/.asf automatically generated from VICON data using
   VICON BodyBuilder and BodyLanguage model FoxedUp or BRILLIANT.MOD
:root
   order TX TY TZ RX RY RZ
   axis XYZ
   position 0 0 0  
   orientation 0 0 0 
:bonedata
  begin
     id 1 
     name lhipjoint
     direction 0.692814 -0.645514 0.321437 
     length 2.38754 
     axis 0 0 0  XYZ
  end
  begin
     id 2 
     name lfemur
     direction 0.34202 -0.939693 0  
     length 6.41921  
     axis 0 0 20  XYZ
    dof rx ry rz
    limits (-160.0 20.0)
           (-70.0 70.0)
           (-60.0 70.0)
  end
  begin
     id 3 
     name ltibia
     direction 0.34202 -0.939693 0   
     length 6.98247   
     axis 0 0 20   XYZ
    dof rx
    limits (-10.0 170.0)
  end
  begin
     id 4 
     name lfoot
     direction 0.0947186 -0.260237 0.960888   
     length 1.83034   
     axis -90 7.62852e-016 20   XYZ
    dof rx rz
    limits (-45.0 90.0)
           (-70.0 20.0)
  end
  begin
     id 5 
     name ltoes
     direction 1.53538e-011 -4.21952e-011 1   
     length 0.920499   
     axis -90 7.62852e-016 20   XYZ
    dof rx
    limits (-90.0 20.0)
  end
  begin
     id 6 
     name rhipjoint
     direction -0.631686 -0.693949 0.345555   
     length 2.2209  
     axis 0 0 0  XYZ 
  end
  begin
     id 7 
     name rfemur
     direction -0.34202 -0.939693 0   
     length 6.49542   
     axis 0 0 -20   XYZ
    dof rx ry rz
    limits (-160.0 20.0)
           (-70.0 70.0)
           (-70.0 60.0)
  end
  begin
     id 8 
     name rtibia
     direction -0.34202 -0.939693 0   
     length 7.21712   
     axis 0 0 -20   XYZ
    dof rx
    limits (-10.0 170.0)
 end
 begin
     id 9 
     name rfoot
     direction -0.0825378 -0.226771 0.970444   
     length 1.89724  
     axis -90 -7.62852e-016 -20   XYZ
    dof rx rz
    limits (-45.0 90.0)
           (-20.0 70.0)
  end
  begin
     id 10 
     name rtoes
     direction -1.53515e-011 -4.22016e-011 1   
     length 0.955868   
     axis -90 -7.62852e-016 -20   XYZ
    dof rx
    limits (-90.0 20.0)
  end
  begin
     id 11 
     name lowerback
     direction -0.0104711 0.984802 -0.173368   
     length 1.84931   
     axis 0 0 0   XYZ
    dof rx ry rz
    limits (-20.0 45.0)
           (-30.0 30.0)
           (-30.0 30.0)
  end
  begin
     id 12 
     name upperback
     direction -0.00286433 0.999996 -0.000382853   
     length 1.85768   
     axis 0 0 0   XYZ
    dof rx ry rz
    limits (-20.0 45.0)
           (-30.0 30.0)
           (-30.0 30.0)
  end
  begin
     id 13 
     name thorax
     direction 0.00167534 0.996793 0.0800069   
     length 1.92   
     axis 0 0 0   XYZ
    dof rx ry rz
    limits (-20.0 45.0)
           (-30.0 30.0)
           (-30.0 30.0)
  end
  begin
     id 14 
     name lowerneck
     direction -0.0672491 0.995415 0.068018   
     length 1.58923   
     axis 0 0 0   XYZ
    dof rx ry rz
    limits (-20.0 45.0)
           (-30.0 30.0)
           (-30.0 30.0)
  end
  begin
     id 15 
     name upperneck
     direction 0.0958019 0.982476 -0.159884   
     length 1.60189   
     axis 0 0 0   XYZ
    dof rx ry rz
    limits (-20.0 45.0)
           (-30.0 30.0)
           (-30.0 30.0)
  end
  begin
     id 16
     name head
     direction 0.032989 0.997338 -0.0650226  
     length 1.61681  
     axis 0 0 0   XYZ
    dof rx ry rz
    limits (-20.0 45.0)
           (-30.0 30.0)
           (-30.0 30.0)
  end
  begin
     id 17 
     name lclavicle
     direction 0.954279 0.298875 -0.00496069  
     length 2.99449  
     axis 0 0 0   XYZ
    dof ry rz
    limits (-20.0 10.0)
           (0.0 20.0)
  end
  begin
     id 18 
     name lhumerus
     direction 1 -4.48985e-011 -4.2057e-027   
     length 4.79185   
     axis 180 -30 -90   XYZ
    dof rx ry rz
    limits (-60.0 90.0)
           (-90.0 90.0)
           (-90.0 90.0)
  end
  begin
     id 19
     name lradius
     direction 1 -4.48945e-011 1.15441e-028   
     length 2.65553   
     axis 180 -30 -90   XYZ
    dof rx
    limits (-10.0 170.0)
  end
  begin
     id 20
     name lwrist
     direction 1 -4.4899e-011 4.8894e-028   
     length 1.32777   
     axis -2.56392e-016 90 90   XYZ
    dof ry
    limits (-180.0 0.0)
 end
  begin
     id 21 
     name lhand
     direction 1 -4.48908e-011 9.7788e-028   
     length 0.743904   
     axis -6.23971e-016 90 90   XYZ
    dof rx rz
    limits (-90.0 90.0)
           (-45.0 45.0)
  end
  begin
     id 22 
     name lfingers
     direction 1 -4.49068e-011 1.95576e-027   
     length 0.599754   
     axis -1.24794e-015 90 90   XYZ
    dof rx
    limits (0.0 90.0)
  end
  begin
     id 23
     name lthumb
     direction 0.707107 -6.34883e-011 0.707107   
     length 0.861131   
     axis -90 45 2.85299e-015   XYZ
    dof rx rz
    limits (-45.0 45.0)
           (-45.0 45.0)
  end
  begin
     id 24 
     name rclavicle
     direction -0.957921 0.286916 0.00811568   
     length 3.06817  
     axis 0 0 0   XYZ 
    dof ry rz
    limits (-10.0 20.0)
           (-20.0 0.0)
  end
  begin
     id 25 
     name rhumerus
     direction -1 -4.48971e-011 -3.07942e-027  
     length 4.77254   
     axis 180 30 90   XYZ
    dof rx ry rz
    limits (-90.0 60.0)
           (-90.0 90.0)
           (-90.0 90.0)
  end
  begin
     id 26 
     name rradius
     direction -1 -4.48957e-011 -9.6815e-028   
     length 2.75995   
     axis 180 30 90   XYZ
    dof rx
    limits (-10.0 170.0)
  end
  begin
     id 27 
     name rwrist
     direction -1 -4.48979e-011 4.8894e-028   
     length 1.37997   
     axis -2.56392e-016 -90 -90   XYZ
    dof ry
    limits (-180.0 0.0)
  end
  begin
     id 28
     name rhand
     direction -1 -4.48906e-011 9.7788e-028   
     length 0.701619   
     axis -6.23971e-016 -90 -90   XYZ
    dof rx rz
    limits (-90.0 90.0)
           (-45.0 45.0)
  end
  begin
     id 29
     name rfingers
     direction -1 -4.49018e-011 1.95576e-027   
     length 0.565663   
     axis -1.24794e-015 -90 -90   XYZ
    dof rx
    limits (0.0 90.0)
  end
  begin
     id 30
     name rthumb
     direction -0.707107 -6.34881e-011 0.707107   
     length 0.812183   
     axis -90 -45 -2.85299e-015   XYZ
    dof rx rz
    limits (-45.0 45.0)
           (-45.0 45.0)
  end
:hierarchy
  begin
    root lhipjoint rhipjoint lowerback
    lhipjoint lfemur
    lfemur ltibia
    ltibia lfoot
    lfoot ltoes
    rhipjoint rfemur
    rfemur rtibia
    rtibia rfoot
    rfoot rtoes
    lowerback upperback
    upperback thorax
    thorax lowerneck lclavicle rclavicle
    lowerneck upperneck
    upperneck head
    lclavicle lhumerus
    lhumerus lradius
    lradius lwrist
    lwrist lhand lthumb
    lhand lfingers
    rclavicle rhumerus
    rhumerus rradius
    rradius rwrist
    rwrist rhand rthumb
    rhand rfingers
  end

#!OML:ASF F:\VICON\USERDATA\INSTALL\rory3\rory3.ASF
:FULLY-SPECIFIED
:DEGREES
709
root 0.20928 16.1604 -0.0501677 -0.767309 -1.80918 -0.737102
lowerback 8.47983 0.336625 -1.32021
upperback -1.02404 0.290524 -0.344183
thorax -5.8364 0.180053 0.344768
lowerneck -16.2448 -8.27005 -11.4614
upperneck 33.1658 -10.5275 5.15421
head 15.2631 -5.27149 2.17859
rclavicle -1.02747e-014 9.93923e-015
rhumerus 33.0222 36.7579 -39.8672
rradius 76.5892
rwrist -63.9894
rhand -5.41851 10.2895
rfingers 7.12502
rthumb 20.3913 -18.6599
lclavicle -1.02747e-014 9.93923e-015
lhumerus 17.0018 -71.4789 46.1377
lradius 91.9681
lwrist 52.029
lhand 9.49896 21.999
lfingers 7.12502
lthumb 34.651 48.6359
rfemur 0.151498 11.2471 17.9122
rtibia 13.7186
rfoot -9.87117 -9.96869
rtoes -5.93409
lfemur 6.38426 -9.32622 -16.7881
ltibia 2.24816
lfoot -4.65365 10.4539
ltoes -10.7534
710
root 0.208261 16.1596 -0.04974 -0.753119 -1.78174 -0.773041
lowerback 8.45343 0.363937 -1.30411
upperback -1.0304 0.329323 -0.338987
thorax -5.82865 0.198714 0.336051
lowerneck -16.1631 -8.30409 -11.5509
upperneck 33.1083 -10.5799 5.22204
head 15.2354 -5.29724 2.21378
rclavicle 3.516e-015 -5.56597e-015
rhumerus 32.4578 37.3951 -40.0418
rradius 75.5043
rwrist -63.6115
rhand -4.99416 10.417
rfingers 7.12502
rthumb 20.799 -18.4882
lclavicle 3.516e-015 -5.56597e-015
lhumerus 15.9879 -71.568 47.1911
lradius 92.4952
lwrist 52.1425
lhand 9.3927 21.7547
lfingers 7.12502
lthumb 34.5501 48.4147
rfemur 0.112433 11.2502 17.9534
rtibia 13.7757
rfoot -9.88854 -9.99935
rtoes -5.87892
lfemur 6.3436 -9.35747 -16.7356
ltibia 2.27824
lfoot -4.65649 10.4572
ltoes -10.9704
711
root 0.206148 16.1592 -0.0507843 -0.759266 -1.72386 -0.737107
lowerback 8.44664 0.400484 -1.4086
upperback -1.01937 0.368577 -0.318052
thorax -5.81476 0.221669 0.411503
lowerneck -16.0977 -8.34148 -11.6434
upperneck 33.0613 -10.6211 5.25349
head 15.213 -5.32285 2.23587
rclavicle -7.45443e-017 6.36111e-015
rhumerus 31.8861 38.1251 -40.1446
rradius 74.5206
rwrist -63.1816
rhand -4.84332 10.2185
rfingers 7.12502
rthumb 20.9439 -18.6708
lclavicle -7.45443e-017 6.36111e-015
lhumerus 15.0857 -71.5681 48.2232
lradius 92.9945
lwrist 52.3471
lhand 9.64364 21.56
lfingers 7.12502
lthumb 34.7883 48.1652
rfemur 0.10008 11.2332 17.9325
rtibia 13.8313
rfoot -9.92474 -10.0542
rtoes -5.71673
lfemur 6.36337 -9.41877 -16.7634
ltibia 2.21234
lfoot -4.58998 10.4708
ltoes -11.1961
712
root 0.204989 16.158 -0.0511514 -0.81399 -1.67542 -0.666003
lowerback 8.51543 0.450002 -1.51288
upperback -1.03065 0.422388 -0.315521
thorax -5.8676 0.251929 0.465068
lowerneck -15.9537 -8.38487 -11.778
upperneck 33.0256 -10.6749 5.30102
head 15.1842 -5.35905 2.27194
rclavicle -7.10655e-015 2.78299e-015
rhumerus 31.25 38.9877 -40.2303
rradius 73.6064
rwrist -62.7067
rhand -5.28383 10.2555
rfingers 7.12502
rthumb 20.5207 -18.68
lclavicle -7.10655e-015 2.78299e-015
lhumerus 13.9721 -71.5452 49.4729
lradius 93.4909
lwrist 52.4626
lhand 9.71999 21.6447
lfingers 7.12502
lthumb 34.8607 48.2332
rfemur 0.172039 11.1908 17.8685
rtibia 13.8335
rfoot -9.95986 -10.0557
rtoes -5.87266
lfemur 6.43689 -9.4716 -16.8516
ltibia 2.15557
lfoot -4.53797 10.468
ltoes -11.0603
713
root 0.204588 16.1579 -0.0499988 -0.839604 -1.66583 -0.665939
lowerback 8.47515 0.487776 -1.44971
upperback -0.997015 0.476365 -0.387359
thorax -5.80919 0.274753 0.347817
lowerneck -15.8944 -8.41635 -11.7428
upperneck 32.9791 -10.7606 5.36467
head 15.1603 -5.38365 2.27773
rclavicle 1.87603e-015 -1.15295e-014
rhumerus 30.68 39.7647 -40.4817
rradius 72.6454
rwrist -62.306
rhand -5.45458 10.1354
rfingers 7.12502
rthumb 20.3566 -18.8177
lclavicle 1.87603e-015 -1.15295e-014
lhumerus 13.1547 -71.5349 50.2339
lradius 94.0104
lwrist 52.4774
lhand 9.31448 21.8037
lfingers 7.12502
lthumb 34.4759 48.4805
rfemur 0.174604 11.2036 17.872
rtibia 13.8901
rfoot -10.0295 -10.0405
rtoes -5.95046
lfemur 6.83849 -9.486 -16.8464
ltibia 1.45322
lfoot -4.23769 10.4994
ltoes -10.6891
714
root 0.204835 16.1596 -0.048553 -0.838173 -1.60368 -0.737069
lowerback 8.39134 0.501566 -1.30018
upperback -0.958433 0.508369 -0.455763
thorax -5.7195 0.284031 0.189077
lowerneck -15.8689 -8.45432 -11.6535
upperneck 32.9286 -10.8716 5.43446
head 15.1411 -5.4106 2.27096
rclavicle -7.14382e-016 6.36111e-015
rhumerus 30.0983 40.5531 -40.8058
rradius 71.6923
rwrist -62.0178
rhand -5.03815 9.86653
rfingers 7.12502
rthumb 20.7568 -19.0433
lclavicle -7.14382e-016 6.36111e-015
lhumerus 12.4747 -71.4872 50.8687
lradius 94.4382
lwrist 52.445
lhand 8.89607 21.8152
lfingers 7.12502
lthumb 34.0786 48.5815
rfemur 0.166778 11.1541 17.9488
rtibia 13.9289
rfoot -10.0554 -10.056
rtoes -6.06762
lfemur 7.28887 -9.55337 -16.7554
ltibia 0.587252
lfoot -3.82904 10.5949
ltoes -10.6377
715
root 0.206707 16.1589 -0.0450111 -0.823432 -1.50918 -0.553245
lowerback 8.30089 0.52604 -1.45703
upperback -0.955401 0.522595 -0.526965
thorax -5.66613 0.294575 0.201982
lowerneck -15.8415 -8.50047 -11.7235
upperneck 32.9431 -10.955 5.52143
head 15.1639 -5.4434 2.30311
rclavicle 3.29237e-015 7.95139e-016
rhumerus 29.4746 41.5354 -40.9421
rradius 70.842
rwrist -61.8869
rhand -4.97166 9.84347
rfingers 7.12502
rthumb 20.8206 -19.0594
lclavicle 3.29237e-015 7.95139e-016
lhumerus 11.5036 -71.3875 51.8954
lradius 94.8045
lwrist 52.3492
lhand 8.63969 21.7349
lfingers 7.12502
lthumb 33.835 48.5551
rfemur 0.218503 11.0078 17.722
rtibia 13.8424
rfoot -10.073 -9.97992
rtoes -5.97599
lfemur 6.738 -9.64308 -16.9969
ltibia 1.60144
lfoot -4.33128 10.532
ltoes -10.7328
716
root 0.206116 16.1567 -0.0406571 -0.839228 -1.44552 -0.555114
lowerback 8.24354 0.556915 -1.47435
upperback -0.934277 0.563537 -0.524787
thorax -5.61223 0.314997 0.209339
lowerneck -15.7889 -8.556 -11.8571
upperneck 32.9176 -11.0468 5.64845
head 15.1717 -5.48274 2.36132
rclavicle 6.02566e-016 2.38542e-015
rhumerus 28.7686 42.5579 -41.1392
rradius 70.0349
rwrist -61.8141
rhand -5.17843 9.78394
rfingers 7.12502
rthumb 20.622 -19.1406
lclavicle 6.02566e-016 2.38542e-015
lhumerus 10.5437 -71.3381 52.8866
lradius 95.3146
lwrist 52.5437
lhand 8.02458 21.8287
lfingers 7.12502
lthumb 33.2504 48.7757
rfemur 0.299716 11.0082 17.7365
rtibia 13.7824
rfoot -10.0866 -10.003
rtoes -5.57627
lfemur 6.48945 -9.7101 -17.0099
ltibia 2.10495
lfoot -4.56258 10.5053
ltoes -10.8493
717
root 0.201555 16.1551 -0.0371151 -0.907996 -1.42109 -0.920868
lowerback 8.26449 0.592013 -1.24136
upperback -0.897001 0.643102 -0.361387
thorax -5.58522 0.34939 0.238347
lowerneck -15.7753 -8.60333 -11.9704
upperneck 32.9242 -11.0977 5.68836
head 15.1907 -5.51267 2.38665
rclavicle -2.45375e-015 4.77083e-015
rhumerus 27.9996 43.5825 -41.3615
rradius 69.2762
rwrist -61.599
rhand -5.0253 9.24733
rfingers 7.12502
rthumb 20.7691 -19.6612
lclavicle -2.45375e-015 4.77083e-015
lhumerus 9.41641 -71.3231 54.1059
lradius 95.8529
lwrist 53.0286
lhand 6.22723 22.1808
lfingers 7.12502
lthumb 31.5398 49.4779
rfemur 0.411333 11.1504 18.2052
rtibia 13.7906
rfoot -10.1228 -10.1832
rtoes -5.81093
lfemur 6.52861 -9.75183 -16.597
ltibia 2.20086
lfoot -4.60338 10.4699
ltoes -10.8051
718
root 0.200394 16.155 -0.0344424 -0.885276 -1.37056 -0.810943
lowerback 8.22632 0.660593 -1.56309
upperback -0.916762 0.709275 -0.237839
thorax -5.59119 0.394042 0.539585
lowerneck -15.729 -8.65566 -12.1355
upperneck 32.9072 -11.0997 5.61628
head 15.1814 -5.5435 2.38417
rclavicle 8.4732e-015 -7.95139e-015
rhumerus 27.1529 44.6859 -41.4919
rradius 68.6532
rwrist -61.3386
rhand -4.38431 8.96204
rfingers 7.12502
rthumb 21.3849 -19.8779
lclavicle 8.4732e-015 -7.95139e-015
lhumerus 8.13384 -71.1217 55.7031
lradius 96.0501
lwrist 53.0918
lhand 4.67593 22.3438
lfingers 7.12502
lthumb 30.0608 49.9201
rfemur 0.458949 11.133 18.0895
rtibia 13.7019
rfoot -10.1183 -10.2456
rtoes -5.80204
lfemur 6.15082 -9.80069 -16.729
ltibia 2.87638
lfoot -4.89957 10.4138
ltoes -10.9777
719
root 0.200984 16.1556 -0.0286978 -0.837861 -1.34698 -0.662411
lowerback 8.07095 0.737633 -1.81331
upperback -0.891183 0.792565 -0.199293
thorax -5.48245 0.442575 0.71158
lowerneck -15.7281 -8.72579 -12.2579
upperneck 32.8866 -11.1619 5.61349
head 15.1896 -5.58405 2.38997
rclavicle 8.2185e-015 -7.15625e-015
rhumerus 26.2041 45.79 -41.7592
rradius 68.2136
rwrist -61.4111
rhand -4.15836 9.06991
rfingers 7.12502
rthumb 21.6019 -19.7452
lclavicle 8.2185e-015 -7.15625e-015
lhumerus 7.38454 -70.7443 56.7842
lradius 96.0326
lwrist 52.6521
lhand 4.62635 22.1954
lfingers 7.12502
lthumb 30.0135 49.7802
rfemur 0.50501 11.084 17.9104
rtibia 13.5612
rfoot -10.0922 -10.2156
rtoes -5.57127
lfemur 5.78036 -9.81966 -16.9146
ltibia 3.51648
lfoot -5.21378 10.4094
ltoes -10.9402
